# xmcd
#
# Track frame offsets:
#	150
#	9919
#	19731
#	29284
#	38305
#	48297
#	63918
#	78997
#	87939
#	99730
#	112988
#	122144
#
# Disc length: 1744 seconds
#
# Revision: 1
# Processed by: cddbd v1.4PL0 Copyright (c) Steve Scherf et al.
# Submitted via: EasyCDDAExtractor 5.0.6
#
DISCID=8106ce0c
DTITLE=Tião Carreiro - É isto que o povo quer
DYEAR=2000
DGENRE=Country
TTITLE0=tudo serve-baiano no coco-nove e nove-pagode do ala
TTITLE1=ferreirinha da viola
TTITLE2=o menino da porteira
TTITLE3=faca que não corta-rei sem coroa-rancho dos ioes-pagode na praça-sete 
TTITLE3=flexas
TTITLE4=viola chic chic
TTITLE5=em tempo de avanço-fim da picada-é isto que o povo quer
TTITLE6=viola que vale ouro
TTITLE7=pagode em brasilia-bandeira branca-tudo certo-linha de frente-tem e nã
TTITLE7=o tem
TTITLE8=canoeiro
TTITLE9=rio de lagrimas
TTITLE10=cabelo loiro
TTITLE11=futura familia-empreitada perigosa-riquezas do brasil-chora viola
EXTD=
EXTT0=
EXTT1=
EXTT2=
EXTT3=
EXTT4=
EXTT5=
EXTT6=
EXTT7=
EXTT8=
EXTT9=
EXTT10=
EXTT11=
PLAYORDER=
